/* XPM */
static char *ee69854c90c340839858887ddf8465acrVwmFdHdUV5zNRfp[] = {
/* columns rows colors chars-per-pixel */
"64 64 236 2 ",
"   c #5557CE",
".  c #5D4DD5",
"X  c #5E4DD9",
"o  c #4D5FDB",
"O  c #5D53D4",
"+  c #5754DA",
"@  c #5D51DA",
"#  c #5259DA",
"$  c #5A5CDC",
"%  c #5357D5",
"&  c #634ED7",
"*  c #634EDA",
"=  c #6453D6",
"-  c #6953D5",
";  c #6253DA",
":  c #6951DD",
">  c #645FDB",
",  c #6A5EDE",
"<  c #6C5ED7",
"1  c #7656DB",
"2  c #755BDB",
"3  c #745AD9",
"4  c #5B6CDE",
"5  c #5562DE",
"6  c #5A75DF",
"7  c #5576DD",
"8  c #6860D9",
"9  c #4E5FE1",
"0  c #575EE2",
"q  c #694FE4",
"w  c #674FE1",
"e  c #6555E4",
"r  c #6A53E4",
"t  c #6158E7",
"y  c #6C54E8",
"u  c #7A59E8",
"i  c #745EF5",
"p  c #7C5CF6",
"a  c #7D5DF9",
"s  c #5165E2",
"d  c #5A63E4",
"f  c #5B6DE5",
"g  c #5F6DEB",
"h  c #5960EC",
"j  c #5573E3",
"k  c #5D72E4",
"l  c #5C7BE4",
"z  c #5C72EA",
"x  c #5F78EF",
"c  c #5779E5",
"v  c #567FF4",
"b  c #5E7EF6",
"n  c #577FF8",
"m  c #5E7EF9",
"M  c #6363E5",
"N  c #636CE2",
"B  c #6A6EE4",
"V  c #6363ED",
"C  c #626CEA",
"Z  c #686AEC",
"A  c #6C61E1",
"S  c #716BEC",
"D  c #7862E0",
"F  c #6272E4",
"G  c #6271EB",
"H  c #627DED",
"J  c #7F7BEA",
"K  c #636FF1",
"L  c #6C6BF4",
"P  c #666EFB",
"I  c #6E6DF9",
"U  c #6864F7",
"Y  c #7465F5",
"T  c #7D63F5",
"R  c #726AF2",
"E  c #7C62FC",
"W  c #796BFD",
"Q  c #7267FA",
"!  c #6672F4",
"~  c #6A73F4",
"^  c #627EF6",
"/  c #6B74FA",
"(  c #637DFA",
")  c #6B7AFF",
"_  c #6477F8",
"`  c #7C7EF6",
"'  c #7275FE",
"]  c #7A73FE",
"[  c #767EFC",
"{  c #7D7EFE",
"}  c #8161DC",
"|  c #815EF6",
" . c #8356FE",
".. c #815DFA",
"X. c #8461E3",
"o. c #8966E5",
"O. c #8968EA",
"+. c #8670EF",
"@. c #8363F4",
"#. c #8B65F3",
"$. c #876FF7",
"%. c #8B6CF4",
"&. c #8463FD",
"*. c #8963FD",
"=. c #856DFD",
"-. c #8B6CFD",
";. c #9369F6",
":. c #9869F4",
">. c #8775F4",
",. c #8D72F4",
"<. c #847EF6",
"1. c #8C7DF6",
"2. c #8574FF",
"3. c #8B74FF",
"4. c #827DFE",
"5. c #8B7CFC",
"6. c #957EF5",
"7. c #9D7EF6",
"8. c #9374FD",
"9. c #9B74FC",
"0. c #937DFC",
"q. c #9B7DFD",
"w. c #9476F2",
"e. c #9369E5",
"r. c #A07EF7",
"t. c #A073FB",
"y. c #A37DFE",
"u. c #AB7CFE",
"i. c #5F87DE",
"p. c #5B84EC",
"a. c #5F86E9",
"s. c #5C82F5",
"d. c #5C81F9",
"f. c #5A88F2",
"g. c #6182E4",
"h. c #648DEC",
"j. c #6E89ED",
"k. c #6582E8",
"l. c #7B86EE",
"z. c #7A88EB",
"x. c #7283EF",
"c. c #6397ED",
"v. c #6182F5",
"b. c #658AF5",
"n. c #6C8CF4",
"m. c #6482FC",
"M. c #6C85FD",
"N. c #6D89FC",
"B. c #6988F7",
"V. c #7384F4",
"C. c #7B85F5",
"Z. c #748DF4",
"A. c #7C8BF5",
"S. c #7484FE",
"D. c #7D81FE",
"F. c #7A85FE",
"G. c #7D85FE",
"H. c #7C82FD",
"J. c #738AFD",
"K. c #7C8AFC",
"L. c #6594F4",
"P. c #6D96FA",
"I. c #6D9BFD",
"U. c #6991F8",
"Y. c #7291F5",
"T. c #7B91F4",
"R. c #7E9DF6",
"E. c #7393FD",
"W. c #7D93FB",
"Q. c #749BFD",
"!. c #7D9CFD",
"~. c #6CA1FF",
"^. c #74A1FF",
"/. c #7CA2FD",
"(. c #7DA8FF",
"). c #8C86EF",
"_. c #8A8AEE",
"`. c #858EE9",
"'. c #8093EF",
"]. c #8082F6",
"[. c #8383F4",
"{. c #8A81F5",
"}. c #8B82F4",
"|. c #848CF5",
" X c #8A8BF4",
".X c #8080F9",
"XX c #8080FC",
"oX c #8081FF",
"OX c #8381FF",
"+X c #8182FD",
"@X c #8282FD",
"#X c #8B82FC",
"$X c #828BFB",
"%X c #8B8BFB",
"&X c #9482F6",
"*X c #9E81F2",
"=X c #9D81F4",
"-X c #9C83F5",
";X c #938DF6",
":X c #9D8BF5",
">X c #9682FD",
",X c #9484FD",
"<X c #9E87FB",
"1X c #9A82FE",
"2X c #9985FF",
"3X c #9B83FD",
"4X c #958AFC",
"5X c #9A8AFD",
"6X c #8293F2",
"7X c #8C91F4",
"8X c #829DF7",
"9X c #8394FC",
"0X c #8A93FD",
"qX c #849CFD",
"wX c #8B9CFF",
"eX c #9492F7",
"rX c #9A94F5",
"tX c #9394FD",
"yX c #9C92FA",
"uX c #939BFE",
"iX c #9C9BFE",
"pX c #9099F6",
"aX c #A185F7",
"sX c #A481FA",
"dX c #A182FD",
"fX c #A983FF",
"gX c #A189F7",
"hX c #A396FF",
"jX c #83A3FE",
"kX c #8BA4FF",
"lX c #86A9FF",
"zX c #8BA9FF",
"xX c #80A0F5",
"cX c #93A4FF",
"vX c #9BA1FF",
"bX c #92A8FF",
/* pixels */
"D.D.D.D.D.D.4.4.{ 4.D.H.S.M.m.z ,X3X>X#XXXG.D.H.XX{ XXD.S.J.M.F <X*X{.].XXXX4.4.D.H.H.D.XXV.^ j &X*X&X{.4.G.F.S.H.H.H.D.XXXXXX4.",
"4.D.D.D.D.D.4.4.{ { { S.S.M.m.z ,X3X>X#X4.D.D.{ 4.4.4.D.H.J.M.F <X=X{.].4.4.4.4.D.H.D.D.XXS.^ z &X=X&X1.4.G.F.H.H.H.D.D.D.XX4.4.",
"4.4.4.D.4.4.4.4.4.4.4.H.S.M.( G 2XdX1X5.<.XXXX{ 4.4.4.4.{ F.M.B <X7.{.XX4.4.4.4.D.H.D.{ XXS.^ z ,XaX3X5.4.XXD.H.H.D.D.XXD.4.4.4.",
"4.4.4.4.4.4.4.4.4.4.4.H.S.M.( G 1Xy.1X5.<.XXXX4.4.4.4.4.{ F.S.B dXr.5.4.4.4.5.4.D.D.D.{ D.S.m z 2XsXq.5.4.4.D.{ D.D.4.4.4.4.4.4.",
"4.4.4.4.4.4.4.4.5.4.4.H.H.S.^ G 1Xy.q.0.<.XX4.4.4.5.4.4.{ G.S.B dXr.5.<.4.4.4.4.D.D.H.{ D.S.d.z 2Xy.q.0.3.4.4.{ D.{ 4.4.4.4.4.4.",
"4.4.4.XX4.4.4.4.4.4.4.H.H.S.^ G 1Xy.q.0.<.XX4.4.4.5.4.4.{ G.S.B dXr.5.4.4.4.5.4.D.H.H.H.D.S.d.z 2Xy.q.0.3.4.4.{ { { 4.4.4.{ 4.{ ",
"4.XXXXD.D.D.4.4.4.4.4.H.S.M.v.G 1Xy.1X5.<.XXXX{ 4.4.4.4.{ F.S.B <X7.{.XX4.4.4.4.D.H.H.H.F.S.s.j 2XsXq.0.5.4.{ { D.{ D.D.{ { D.D.",
"XXD.D.D.D.D.4.4.4.4.D.H.S.M.v.z 2Xy.1X5.<.XXXX{ 4.4.4.4.{ F.M.F <X=X{.].XX4.4.4.H.F.H.H.F.M.s.j 4XsX3X5.4.XXD.{ D.D.D.D.D.D.D.H.",
"D.D.D.H.H.H.D.D.` D.D.S.S.N.d.f >Xq.>X#XXXD.D.{ 4.{ 4.{ [ F.M.F 4X-X{.].D.{ 4.4.[ F.G.V.V.M.f.c &X*X-X>X5.4.D.H.D.D.D.D.D.D.H.H.",
"XXD.D.G.G.G.G.XXXX@X@XH.S.N.d.z ,XdX>X#XOX@X@X@XXX4.XXXXH.K.M.F <X-X[.].XX4.4.4.H.G.G.C.V.M.f.j ;X=X&X5.<.{ D.D.D.D.D.D.D.H.H.H.",
"{ { { { { { { { 4.4.{ [ S.M.b f ,Xq.0.5.4.D.D.D.{ { 4.D.[ S.B.N 5X-X[.].XX4.5.4.{ D.D.` H.J.s.7 5XaX&X5.<.4.D.XX4.XX4.4.XXD.D.D.",
"OXXXXXXXXXXXXX4.4.4.{ { F.J.m.G 5XdX1X,XOXXXXX{ XX4.OXXXD.K.M.N <X6.<.` 4.5.3.3.4.{ ` ` { S.b j 5XaXq.5.4.4.4.4.4.4.4.<.4.4.4.4.",
"5.4.4.4.4.4.5.3.5.5.2.{ H.S._ C 3Xy.q.0.#X4.{ { 4.5.5.4.{ F.V.B dXq.>.2.2.2.3.3.3.2.2.2.5.{ ( g 2X7.q.0.3.5.2.2.5.3.3.3.3.5.5.5.",
"3.3.3.5.5.3.3.3.3.3.2.4.{ [ _ Z 3Xy.q.0.#X#X4.5.5.5.3.5.4.D.V.B dX9.$.2.=.=.-.-.=.=.=.=.=.W P C 3Xy.9.8.3.3.2.2.2.2.3.3.2.2.2.2.",
"$.$.$.=.=.=.=.=.=.=.=.] ] ' / R fXu.9.8.5.5.4.5.3.3.3.2.2.XXH.S 9.;.p i a .. . .a a p a p i U U q.:.#.@.T E E E p | | | | | ..a ",
"O O O O O O O O . O O O % # o $ w.e.} 3 < 8 > > A , , , > N 4   O.X.: ; e r q q * * w r r t h V +.X.3 & & @ @ ; * * & & & * * * ",
"cXcXcXcXzXzXcXcXcXcXkXkXzXlXQ.j.).gXhXiXiXcXcXcXcXvXvXvXcXkXQ.n.J }.%X0X0X9XwXwXwX0X0X0XwXqXQ.E.|.eXuXuXwXwXwXwXwXwXwXwXwXwXwXqX",
"qX8XqX8X/./.xXxX8X8XR.!./.^.L.g.).:XeX7X6X'.6X6X'.6X6XW.W.P.f.l [.;XtXwXqXjXlXlXjXjXjXkXlX/.I.h.6XpXcXkXjXjXjXlXkXkXkXkXkXlXlXlX",
"A.A.A.T.T.T.T.T.A.A.A.Z.Y.Y.a.l ;X<X4X Xl.z.z.z.z.l.l.V.Z.b.p.j %X4XtX0XqXqXqXqX9XwXwX9XqX!.U.g.0XeXtX0X9XqXqXqXW.W.9X9XW.R.R.R.",
"C.C.C.C.A.C.C.C.C.C.C.V.Z.n.v.F ,XdX5X}.[.C.C.C.C.C.C.C.J.N.s.z %X2X4X%X$XW.W.W.A.$X$XW.W.E.b.l %X4X;X X|.$X$XA.K.K.$XA.A.A.A.A.",
"XXXXXXXXD.D.XXXXXXXXD.H.S.M.^ G 0.q.>X#X[.[.].C.XXXXD.V.S.N.d.x ,X<X,X%X$X$XK.K.K.@XF.F.K.E.M.H 4X<X2X#X$X$X@XC.@X@X@X@X@XC.K.K.",
"4.4.4.XX4.XX4.4.4.4.4.{ [ M.( ! 0.y.1X,X#X@XXX` 4.D.{ [ S.M.d.z >XdX>X#X$X@XG.C.@X@XD.H.S.J.m.G 5XdX1X5.#X#X@XD.{ D.4.4.XXD.D.D.",
"4.4.4.4.4.4.4.4.4.OX4.{ [ M._ ! 1Xy.1X,X#X@XXX{ 4.XXD.H.S.M.d.z ,Xq.q.#XOX@XD.{ XXXXD.H.S.M.d.z ,Xq.0.5.<.OXXX{ OXOXOXOXXX@X@XG.",
"4.XXXXXXXXXX4.4.4.XXXXD.S.M.m G >Xq.0.5.<.XXXX{ 4.4.{ S.S.M.n z ,Xy.1X,X#X%X@XD.{ 4.D.D.F.J.m.z ,X3X0.5.5.OXXX{ { { { { { { H.H.",
"{ { { H.H.H.{ { { { { H.J.M.n z ,Xq.1X#XOXXXXX` ` { D.G.J.M.d.x ,Xq.1X,X#XXXD.{ ` 4.XXD.S.N.m.z 4X1X>X5.4.{ D.@XXXXXXXXXD.G.G.F.",
"D.D.H.H.H.D.D.XXXXXXH.S.J.M.d.z ,XdX2X#XOX@X@XXX4.{ { H.S.m.v z ,Xq.>X#X@XXX{ { { 4.4.{ S.M.d.f 4X1X>X5.<.H.D.D.D.D.D.D.D.H.H.H.",
"{ { [ [ ` ` ` { XX{ [ S.M.m.v z ,X1X>X5.<.4.4.{ #XOX4.D.S.M.s.z ,XdX2X,X@XXXXXOX#X#X4.{ F.J.m.z 4X2X>X#XXXH.H.H.D.D.{ D.D.D.D.H.",
"XXXXD.D.XXXXXXXX4.4.D.H.S.M.d.x 4XdX2X#X#XOXOX4.5.5.4.{ H.M.b G ,XdX<X,X5.4.4.4.5.5.4.{ D.S.m.z ,X1X0.5.4.{ { { { 4.4.4.4.4.{ { ",
"4.4.4.4.4.4.4.4.2.5.4.D.S.M.m G 0.q.q.0.5.5.5.2.3.2.2.4.{ ) b C 0.9.q.0.3.2.5.5.3.2.2.4.{ [ _ g 2Xq.0.5.3.4.4.4.2.2.2.2.2.2.2.2.",
"3.3.5.3.3.3.5.5.3.3.5.4.{ ) _ K 0.q.q.0.3.5.5.3.8.8.3.3.4.[ _ ~ 1Xy.q.0.0.5.3.5.5.3.3.3.4.{ / L dXy.q.8.5.3.5.2.3.3.8.3.3.3.3.3.",
"2.2.2.2.2.-.-.-.3.-.2.2.] ' ) / 1Xy.9.3.$.2.=.=.*.*.-.=.W I ! I 3Xt.8.$.$.=.=.=.*.*.&.=.W I P L q.9.;.#.@.T T T &.&.&.*.*.&.&.*.",
"; ; = = = = = = = = = O # 5 s d >.O.D = O O O . . & ; @ + # s d 1.O.2 - = O O . . X X @ + # 9 d >.o.2 - = = @ @ * * & & & & & & ",
"cXcXcXcXcXcXcXcXcXcXcXcXzXlX^.Y. XiXiXcXcXkXkXbXcXcXcXcXkXlX/.n._.yXiXuXcXkXjXkXcXcXcXkXjXlX/.n.|.tXuXuXwXjXjXqXwXwXwXwXwXwXwXwX",
"R.R.R.R.R.R.8X8X8X8X8XR./.Q.c.i.`.rXpXwXkXjX/.jX8X8XkXxX!.^.I.a._.rXpXwXjXlX/.lXkXjXjXlX/./.~.h.9XtXuXwXkXlXlXjXjXjXkXkXkXkXkXkX",
"A.A.Z.Z.Z.A.A.A.A.A.A.Z.Z.n.p.7 _.rXeX|.9XW.T.W.T.A.T.T.Z.E.b.6 ).:X;X X9XW.T.W.T.T.T.T.Y.E.U.c %X4XtX0X9X9XW.W.W.T.T.T.T.T.T.T.",
"C.C.C.C.C.C.C.C.D.D.D.C.J.B.p.6 }.:X;X[.].K.C.A.C.C.A.C.V.J.v.4 &X-X&X[.].K.C.A.C.l.A.C.V.B.v.j #X,X4X}.].A.K.A.K.K.K.A.A.A.A.A.",
"XXD.D.D.D.D.4.4.OXXX4.D.F.S.m.G >XdX>X1.@XXXD.@XXXC.XXC.V.S.m.f 2XfX3X1.#X@X@X@X[.XX[.C.S.J.M.f 5XdX2X#X@X@X@XG.@X@X@X@X[.[.@XG.",
"4.4.4.{ 4.4.4.4.4.4.{ { H.S.( C 1XfXq.5.5.OX4.OX4.4.XXD.[ S.M.N 3XfXq.5.#X#XXXOXOXOXXXXXH.S.M.g <XdX1X0.#X@X@XXX{ { { { 4.{ { { ",
"4.4.4.4.4.4.4.4.4.4.{ { S.M.( C 1XfXq.5.#XOX4.XX4.4.XX{ [ S.M.C 3XfXq.5.5.OX{ { 4.4.4.{ [ S.( d 2XdXq.5.5.OXXX{ XXXXOXOXOXOXXXXX",
"4.4.4.{ { { 4.4.4.4.{ [ S.N.m.G 2XfXq.5.5.OX4.4.4.4.XXD.S.S.m.g <XfXq.5.#XOX4.4.4.4.XXD.S.S.m.f 2XdXq.1.#XOX@X{ { { { { { { { { ",
"XXXXD.D.D.D.D.4.4.XX@XH.S.M.d.z ,Xq.1X,XOXXXXX{ ` { D.[ S.M.m.z ,Xq.6.5.OXXXXX{ { OX@XH.S.M.m.z 5X-X&X1.@XXXG.H.D.D.D.D.{ H.H.H.",
"D.D.D.D.D.D.D.XXXXXXD.S.S.M.d.z ,X-X>X#X4.{ { { { XXXX[ S.M.d.z 4X-X>X#X4.{ D.{ { XXD.[ S.M.d.z 5X<X>X#X@XC.C.F.G.D.D.D.D.D.D.D.",
"` C.C.C.D.D.D.{ XXXX{ V.J.M.s.F 4X<X>X#X4.{ D.{ XXXXXX[ S.N.d.z 4X<X>X#X4.{ D.XXXXXX{ ` S.N.m.z ,X-X&X[.` ` V.V.H.{ { { { { { { ",
"4.4.{ { { 4.4.4.4.2.` { H.S.^ F ,X=X0.5.4.4.{ 4.4.4.4.{ H.S.( z ,X-X>X5.4.{ { 4.4.4.4.{ H.S.( z ,X<X,X#XXXD.D.G.D.XX4.4.4.4.4.4.",
"5.5.5.5.5.5.2.3.3.2.2.5.4.[ ~ Z 1X9.0.0.3.5.5.2.2.2.2.4.D.S._ C >Xq.0.5.5.4.5.5.3.3.3.5.4.S._ C >Xq.0.5.4.4.4.XX4.4.5.5.5.5.5.5.",
"=.=.2.2.2.=.=.=.-.=.=.2.2.] I S dXy.q.8.3.3.3.2.3.3.3.3.4.[ / Z 3Xy.q.3.3.2.2.2.=.=.3.3.2.] / L 3Xy.q.5.3.5.4.5.2.3.3.3.3.3.3.3.",
"p p p p a a a ..........E Y Q Y y.t.;.#.&.&.&...&.&.&.@.Y L L R q.9.%.@.&.E &.a ....| T T Y U Y fXy.9.-.2.2.2.=.=.=.-.-.-.-.-.-.",
"e e e e e r r r y r r y e t V R ,.o.1 - * @ e * * & & ; @ $ d M ,.o.3 = ; ; ; * : : : & @ + 0 M %.X.1 - = ; O O ; ; = = = = = = ",
"0X0X9X9X9X9X0X0X0X0X0X0X0XwXW.x. X;XtXuXwXwXwXqXwXwXwXwXjXkXQ.Z.[.;XtXwXwXqXwXwXwX0XuXwXqXkX!.j.;XyXiXvXcXcXcXcXcXcXcXcXcXcXcXcX",
"qXqXqXjXjXjXqXqXjXqXwXqXqXkX!.j.7XpXuXwXkXlXlXjXjXkXkXkXjX/.I.n.|.tXuXjXkXjXlXjXkXqXwXkXjX(.^.h.0XrXpXwXqX8XR.R.qX8X8X8X8X8X8XxX",
"9XqXqXqX!.!.!.qXqX9X9X9XqXqXQ.k. X4XtX0X9X!.!.W.qX9X9XW.W.E.b.H %X4XtX0X9X!.!.W.9X9X0X9XW.!.P.g.tX:X;X XA.A.T.T.T.T.A.A.A.T.T.T.",
"K.K.W.W.W.W.W.W.K.K.W.W.J.E.n.k %X5X;X$XC.K.K.K.K.A.A.A.J.B.v.z #X4X%X$XA.A.K.K.F.C.F.F.J.J.b.j ;X&X&X[.[.C.A.K.C.K.C.C.C.C.A.C.",
"$X$XK.K.K.K.K.K.F.K.K.K.J.J.b.k 4X<X,X#XXXG.G.F.@X@XC.C.K.J.m.G ,X<X,X#X@X$XF.G.@XXXXXG.S.J.m.f ,X-X&X1.[.XXC.C.D.D.XXXXXXXXD.D.",
"@X@X@XF.K.K.F.F.F.G.F.K.J.J.m.z 5XdX>X5.OXXXD.D.XXXXXXD.F.J.m.! 2XdX1X#XOXOX@XXXOX4.XXD.H.J.m.f 2XdX6.5.#XXXD.{ D.4.4.4.4.4.{ D.",
"4.XXD.D.H.H.H.H.G.H.H.F.M.N.m.f 2Xy.q.5.4.OXXX{ 4.4.4.{ H.S.( K >Xy.q.5.4.OXXX4.4.4.4.{ S.S.m.f 5XdX6.5.5.@X4.{ 4.4.4.4.4.4.4.4.",
"4.4.{ { H.D.D.H.XXD.D.S.M.M.m.f 2Xy.q.5.5.OXOX{ 4.4.4.D.F.S.( g 1Xy.q.0.5.#XOX4.4.4.4.D.S.J.M.f 5Xy.6.1.<.@XXXXXXX4.4.4.4.4.4.4.",
"4.4.4.XXD.D.{ { 4.{ H.H.S.M.( G 2XdXq.5.4.4.{ 4.4.4.4.H.S.M.m z 1Xy.1X5.<.XXXX{ 4.4.{ H.S.M.v.z 2X-X6.1.5.XXXXD.{ 4.4.4.4.4.4.4.",
"4.4.4.4.4.XX4.4.4.4.{ H.S.M.( G 2XaX6.5.4.4.{ { 4.XXXXH.S.M.d.z ,XdX1X#X<.XXXX{ 4.4.{ H.S.M.d.z 4X=X6.1.{.XXD.D.D.{ 4.4.4.4.4.{ ",
"4.4.4.4.4.4.4.4.4.4.{ H.S.S.( z 4X=X&X#X@X4.4.4.4.XXD.H.S.M.d.z ,X-X>X{.<.XXD.D.4.4.{ H.S.N.d.k 4X=X6.{.[.XXD.D.D.D.4.4.4.4.{ D.",
"4.4.4.4.4.4.4.4.4.4.{ H.S.S.( z 4X*X&X#X@X4.4.4.4.XXD.H.S.M.d.z ,X-X&X{.].XXD.D.4.4.{ H.S.N.d.k 4X=X6.{.[.XXD.D.D.D.4.4.4.4.D.D.",
"4.4.4.4.4.4.4.4.4.4.4.{ S.S.^ F 4X*X&X#X<.4.4.4.4.4.4.D.S.M.d.z ,X-X&X{.<.XXD.D.4.4.{ H.S.M.v.z 5X-X6.{.@XXXD.D.D.D.4.4.4.4.D.D.",
"4.4.4.4.4.4.4.4.4.4.4.{ S.S.^ F 4X-X&X#X4.4.4.4.4.4.4.{ S.M.m z ,X-X3X{.<.XXXX{ 4.4.{ { F.S.^ F 2Xy.6.5.#XXXD.D.D.4.4.4.4.4.4.4.",
"XXD.D.D.D.XX4.4.4.4.4.D.F.S.^ F 4X=X&X5.5.4.4.4.5.5.4.4.H.S.( G ,XaX3X5.<.XXXX{ 4.4.4.{ H.S.^ C 2Xy.0.0.5.4.4.4.4.4.4.4.4.4.4.4.",
"D.D.D.D.D.XX4.4.4.4.4.D.F.S.^ F 4X=X&X5.4.4.4.5.5.5.5.4.H.S.( G 2XaX3X5.<.XX4.4.4.5.4.{ H.S.( C 2Xy.q.0.5.4.4.4.4.4.4.4.4.4.4.4."
};
