/* XPM */
static char *_6aaa2a066ed43a1cb8d70622e29d041TAmKQ7c1XEIUFQxh[] = {
/* columns rows colors chars-per-pixel */
"64 64 209 2 ",
"   c #000001",
".  c #080506",
"X  c #070801",
"o  c #090A02",
"O  c #02010B",
"+  c #09050D",
"@  c #0A0A0B",
"#  c #030113",
"$  c #0A0513",
"%  c #0C0B15",
"&  c #04001C",
"*  c #09041C",
"=  c #0E0C1A",
"-  c #020023",
";  c #090224",
":  c #04002A",
">  c #0B042A",
",  c #0E0824",
"<  c #110828",
"1  c #1A142B",
"2  c #1A162C",
"3  c #0A0234",
"4  c #04003D",
"5  c #0C013D",
"6  c #050036",
"7  c #150E35",
"8  c #13053B",
"9  c #140C3B",
"0  c #120731",
"q  c #1B1335",
"w  c #1D153C",
"e  c #1B1437",
"r  c #22193C",
"t  c #0D014A",
"y  c #080044",
"u  c #190D42",
"i  c #140847",
"p  c #1B1247",
"a  c #1C0958",
"s  c #241946",
"d  c #291E53",
"f  c #28195A",
"g  c #2B204A",
"h  c #35304E",
"j  c #2C215B",
"k  c #332A54",
"l  c #363054",
"z  c #2D1F66",
"x  c #322363",
"c  c #342963",
"v  c #332669",
"b  c #3C2B6D",
"n  c #342A69",
"m  c #3A3263",
"M  c #3A2970",
"N  c #433858",
"B  c #43366C",
"V  c #453965",
"C  c #443474",
"Z  c #483675",
"A  c #4C3C7C",
"S  c #4A3B77",
"D  c #4C4274",
"F  c #4F447C",
"G  c #564A76",
"H  c #3A2282",
"J  c #4B3A83",
"K  c #523D8C",
"L  c #58488B",
"P  c #594897",
"I  c #5F5298",
"U  c #61588D",
"Y  c #624D9E",
"T  c #615494",
"R  c #68579A",
"E  c #6B638B",
"W  c #6D6098",
"Q  c #74669E",
"!  c #726497",
"~  c #5E51A0",
"^  c #624EA4",
"/  c #6B5EA6",
"(  c #6B5CAA",
")  c #6552A6",
"_  c #735EAC",
"`  c #634ABE",
"'  c #715EB5",
"]  c #6B56B5",
"[  c #6E63A7",
"{  c #746AA3",
"}  c #7365A9",
"|  c #7569AC",
" . c #7F74AE",
".. c #7262BD",
"X. c #7762B6",
"o. c #7B67C9",
"O. c #7F70CF",
"+. c #8476B6",
"@. c #8779BB",
"#. c #8876BC",
"$. c #846DC6",
"%. c #8474C3",
"&. c #8C7AC6",
"*. c #8B76CD",
"=. c #8D7CCC",
"-. c #8876C5",
";. c #927CCF",
":. c #8A76D3",
">. c #8E79D4",
",. c #8B7BDB",
"<. c #8874DB",
"1. c #927CD6",
"2. c #937BDB",
"3. c #9176DD",
"4. c #886FE9",
"5. c #8D73E6",
"6. c #8D79E1",
"7. c #8D71EC",
"8. c #937BE4",
"9. c #947AEB",
"0. c #967BEB",
"q. c #9A7EF5",
"w. c #977CF1",
"e. c #8E81BB",
"r. c #958DBC",
"t. c #B3A5BF",
"y. c #8E82CB",
"u. c #9283C3",
"i. c #9382CC",
"p. c #9D8DCB",
"a. c #8F81D0",
"s. c #9482D2",
"d. c #9884D5",
"f. c #9482D8",
"g. c #9A84DD",
"h. c #9C89DC",
"j. c #A08EC8",
"k. c #AE9CCC",
"l. c #B09FCC",
"z. c #A38FDD",
"x. c #A38DD5",
"c. c #AC99DC",
"v. c #AD9BD5",
"b. c #B29DDE",
"n. c #B6A4D8",
"m. c #9B85E4",
"M. c #9E8DE5",
"N. c #9C83ED",
"B. c #9987E7",
"V. c #9B83F3",
"C. c #A28BE4",
"Z. c #A38CEA",
"A. c #A389EA",
"S. c #AB94E4",
"D. c #AD9AE3",
"F. c #AB94EC",
"G. c #AE9BED",
"H. c #A690E7",
"J. c #B19BE4",
"K. c #B39EEC",
"L. c #A28AF3",
"P. c #A98FF6",
"I. c #A68DFC",
"U. c #AC8FFF",
"Y. c #A287F6",
"T. c #A693F1",
"R. c #AC94F2",
"E. c #AE99F5",
"W. c #A592FC",
"Q. c #AF95FE",
"!. c #AD93FD",
"~. c #AE99FF",
"^. c #B49CF4",
"/. c #B296FE",
"(. c #B09AFF",
"). c #B59BFF",
"_. c #B49AFE",
"`. c #B99EFF",
"'. c #B097F2",
"]. c #B9A6E3",
"[. c #B6A0EB",
"{. c #BEA9E9",
"}. c #BAA7E4",
"|. c #BAA3F2",
" X c #B6A3FF",
".X c #BBA2FE",
"XX c #C4B6D9",
"oX c #CDBDE9",
"OX c #C8B6E8",
"+X c #C2A9FE",
"@X c #C1AAF8",
"#X c #C4B1FF",
"$X c #C9B4FB",
"%X c #CCBAFC",
"&X c #CBB8F0",
"*X c #D4BEFD",
"=X c #DCD0E8",
"-X c #D6C2FF",
";X c #DCCBFF",
":X c #D8C4FB",
">X c #E6D3FF",
",X c #ECDAFF",
"<X c #F3DFFF",
"1X c #F3E5FF",
"2X c #FCECFF",
"3X c #F7EBF7",
"4X c #FFF4FF",
"5X c #FFF9FF",
"6X c #FBF0F4",
/* pixels */
"                              O O O           X                                             O O                                 ",
"                                O             X                                             O                                   ",
"                                              O O O O                                                                           ",
"                                            O O O O O                                                                           ",
"                                                                  O     O                                                       ",
"                                                                O O                                                             ",
"                                                            O O                                                                 ",
"                                                                                                                                ",
"                  X                           +               X     X X                                                         ",
"                            + .       + $ O O O O       X X     .       X                                                       ",
"                X                   O # # # # O +         O & * O + .                                                           ",
"                          $ $ # & w s w r < # O O   @ O < w 8 9 7 # O       X X                                                 ",
"                    +   O # O & 5 Y #.@.e.G * # +   O # G =.:.1.| - & = .           O O                                         ",
"                .   + O O O # 7 t ] >.*.i.L > & # # , : L :.4.9...4 3 & O   o       O O                                         ",
"                    O O * * 1 E X.!..XQ.).g._ W : 8 R } Z.).U.!.W...} u # O o       O O                                         ",
"                .     O & & 3 @.>.I.).Q.Q.P.1.X.y y _ *.Z.Q.).(.T.=.%.i - & O         O                                         ",
"                    O # s L ) P.L.Q. X^.Q.Q.Z.m.` ` 6.Z.E.G.%X,X;Xj.z.^ ) x & O       O O                                       ",
"                      # b d.0.Q.!.(._.E.E._.(.!.7.7.Q._.G.p.XX5X1Xl.|.2.A.K - O       O O O                                     ",
"                  . $ & x :.9./.)._.^.^.^.(.(./.q.q.!.).%XoX=X4X2XOX#X*.1.A & +       O O O                                     ",
"                    # - b 2.9./.(.E.Q.(.).(.!.!.).(.!.Z.>X4X5X5X4X4X2Xg.*.J ;           O O                                     ",
"                    # - M >.5.!.Q.R.Q.).).)././.(..X.XS.:X,X1X4X2X,X,X>.=.A &           O                                       ",
"                  + * - v >.8.(.).).)././././.).H.S.[.c.n.k.oX4X<Xc.F.$.d.A #           O                                       ",
"                    # & c -.*.Q.!.).`./.!./.'.G.+XJ.{.].J.x.$X2X,Xc.K.-.i.D #                                                   ",
"                    $ # > d v %.3.Y./././.).^.J.S.K.>X,X-X'.R..Xc.@.&.z f 0 O                                                   ",
"                  .   O * & s +.1.!./.).).!.^.|.G.|.<X4X*X!.).(.D.e.+.i : & O                                                   ",
"                  X     $ O # k f $.g.2.8.N.R.F.^.'.^.+XA.3.0.m.} s d : - #                                                     ",
"O                       . O   O - Q u.-.;.Z.+X`.).+X/..XC.1.*.&.{ : : - & O                                                     ",
"O                         X     # N V B Z Y N.V.!.).V.L.Y A Z S V & & # O     X                                                 ",
"                                O O # & - x >.8.(.(.8.>.x : & # # # # O O .   X                                                 ",
"                O                   + $ # g / ( R.T...( d & +   O $ +   o     X                                                 ",
"                    O O O +         @ O O # - 3 %.-.z 6 - # X X .             .         . .                                     ",
"                  + O O         +       + O O q Q u.d - , O         . % O +         O O & * $                                   ",
"                                                * * * #     X     % # E  .B # + + O # - ( -.s #         @     +                 ",
"                                                                O & - | f.J - # O O : 4 o.,.f : %   .       O                   ",
"                                                +     O O     O w T P M.F.%.Y B O 1 L ^ B.E.' T h O $ +     .                   ",
"                                                      O O O O > 8 =.N.~.R.g.2.L & q -.m.h.G.h.i.D & # O     X                   ",
"                                                        O # e S J m.w./.(.L.L.' C A d.z.$X;XD.s.| C k # @                       ",
"                                        O O             # ; m @.h..XU.).`./..X!.:.1.D.v.4X4X}.[.M.a.{ & +           O O         ",
"                                        O O             # - n y.-.R.`./.U.!.'.A.5.L.&XXX2X4XXX*XM.,.} - O     o     O O O       ",
"                                        O O           + & - v =.s.F..X)./.`.`.(./.`.4X4X4X5X4X4X#X<./ - +           O O O       ",
"                                        O O O           * - v a.f.R.(.!.).`.`.).!..X2X2X6X5X4X2X X6./ - %     X     O O O       ",
"                                        O O O     X     # - c s.1.!.).`..XF.R.)..X|.n.t.3X5X}.^.B.O.[ - O     X     O O O       ",
"                                        O O             # ; m @.8.).!.!.^.'.(..XK.b.k.k.2X4X+X.XT.%.{ > O           O O         ",
"                                                        O # > j H 5.V.P.'..X).R.K.{.,X>X}.@Xm.2.P p 9 # O   X X                 ",
"                                                        O O O - a o.g.^.).)..X).F.|.4X4X[.^.A.1.F - & O @                       ",
"                                                      O O + + $ u C Z #.m.L.Q./.(.^.-X-XH.C.P b r O O O                         ",
"                                                    O           O # & ! f.!..X(.(.E.S.z.=.&.f ; $   .       O                   ",
"                                                O                 .   G T o.!.I.Q.!.R.h./ W q O             O                   ",
"                                                                  o   O - I :.V.~.W.<.%.u #                                     ",
"                                                                      + & D [ f. XW.../ 9 O X                                   ",
"                                                                . X     O & 3 n y.~ t 5 & O X                                   ",
"                                                                      @ + % * l r.U 3 - & $                                     ",
"                                                                O O           % 2 2 & & # O   .                                 ",
"                                                                # #       o   o     O # O O                                     ",
"                                                                # # O           o       O O                                     ",
"                                                                O O O                                                           ",
"                                                                  O                                                             ",
"                                                                                                                                ",
"                                                                              O O                                               ",
"                                                                          O O O O                                               ",
"                                                                            O O                                                 ",
"                                                                                                                                ",
"                                                                                                                                ",
"                                                                                            O                                   "
};
